<svg width="132" height="46" viewBox="0 0 132 46" fill="none" xmlns="http://www.w3.org/2000/svg">
<g clip-path="url(#clip0_526_2143)">
<path fill-rule="evenodd" clip-rule="evenodd" d="M37.5866 0.205593V0H0.103109V3.70067H21.9828L20.2575 7.05184H0V10.7525H18.3534L16.4699 14.4189H0V18.1127H14.5658L12.9986 21.1555H0V24.8562H11.1014L9.40353 28.1594H0V31.8601H7.49258L5.73285 35.2866H0V38.9873H3.82878L2.00031 42.5303H0V46.231H14.0572L17.3154 38.6995H30.9877L31.5582 46.231H44.2543L37.5935 0.205593H37.5866ZM21.5498 28.9201L28.7536 12.1574H28.8705L30.1559 28.9201H21.5498Z" fill="#1C75BC"/>
<path fill-rule="evenodd" clip-rule="evenodd" d="M75.2351 29.3587H75.1251L73.551 0.205566H57.7341L48.7773 46.2173H59.5625L65.5978 11.0609H65.7147L67.5088 46.2173H77.0635L92.5917 11.0609H92.7636L85.0167 46.2173H95.8019L104.834 0.205566H88.5361L75.2351 29.3587Z" fill="#1C75BC"/>
<path fill-rule="evenodd" clip-rule="evenodd" d="M132 11.5818V7.88109H125.476L126.26 3.85147H131.972V0.185059H124.431V0.205618H113.846L104.861 46.2173H112.924H117.997H132V42.5167H118.712L119.358 39.2135H132V35.5128H120.08L120.726 32.2096H132V28.5089H121.448L122.046 25.4456H132V21.7518H122.768L123.359 18.7021H132V15.0083H124.081L124.754 11.5818H132Z" fill="#1C75BC"/>
</g>
<defs>
<clipPath id="clip0_526_2143">
<rect width="132" height="46" fill="white"/>
</clipPath>
</defs>
</svg>
